<svg width="33" height="23" viewBox="0 0 33 23" fill="none" xmlns="http://www.w3.org/2000/svg">
<g clip-path="url(#clip0_229_13805)">
<path d="M30.8 22.9668H2.2C1.61652 22.9668 1.05694 22.735 0.644365 22.3224C0.231785 21.9098 0 21.3503 0 20.7668L0 11.5121H1.58492L1.94242 10.6468H2.74267L3.09925 11.5085H6.21775V10.853L6.49642 11.513H8.11525L8.39392 10.842V11.5112H16.1425V10.0959H16.2892C16.3937 10.0995 16.4239 10.1087 16.4239 10.2829V11.513H20.4325V11.184C20.8422 11.392 21.3253 11.514 21.8377 11.514L21.9248 11.513H21.9202H23.6069L23.9681 10.6514H24.7683L25.1212 11.513H28.3717V10.6935L28.8631 11.513H31.4627V6.10104H28.8897V6.73996L28.5294 6.10104H25.8839V6.73996L25.553 6.10104H21.9807C21.4395 6.07369 20.9003 6.18508 20.4142 6.42463L20.4334 6.41638V6.10104H17.9694V6.41638C17.6712 6.1813 17.2945 6.06885 16.9162 6.10196H16.9217H7.91725L7.31317 7.49988L6.69258 6.10196H3.85642V6.74088L3.54383 6.10196H1.12383L0.00275 8.66863V3.16863C0.00275 2.58515 0.234535 2.02557 0.647115 1.61299C1.0597 1.20041 1.61927 0.968628 2.20275 0.968628H30.8027C31.3862 0.968628 31.9458 1.20041 32.3584 1.61299C32.771 2.02557 33.0027 2.58515 33.0027 3.16863V12.7753H31.2858C31.2583 12.7735 31.2253 12.7735 31.1932 12.7735C30.7954 12.7735 30.426 12.8926 30.118 13.097L30.1253 13.0925V12.7753H27.5862C27.1895 12.7534 26.797 12.8661 26.4724 13.0952L26.4779 13.0915V12.7744H21.9441V13.0915C21.5729 12.8822 21.1538 12.7729 20.7277 12.7744H20.6919H20.6937H17.7027V13.0915C17.3119 12.8412 16.8482 12.7298 16.3863 12.7753L16.3946 12.7744H13.0478L12.2815 13.603L11.5647 12.7744H6.56517V18.19H11.4712L12.2604 17.3485L13.0038 18.19H16.0279V16.9223H16.4496C16.855 16.9381 17.2594 16.8704 17.6376 16.7234L17.6174 16.7307V18.1919H20.1107V16.7811H20.2308C20.383 16.7811 20.3986 16.7866 20.3986 16.9406V18.1928H27.9757L28.0683 18.1946C28.5028 18.1946 28.908 18.0645 29.2453 17.8417L29.2371 17.8463V18.1928H31.6406L31.7552 18.1946C32.2052 18.1946 32.6333 18.102 33.022 17.9343L33.0009 17.9425V20.7677C33.0009 21.3512 32.7691 21.9108 32.3565 22.3233C31.944 22.7359 31.3844 22.9677 30.8009 22.9677L30.8 22.9668ZM19.3462 17.431H18.4131V13.549H20.5544C20.9412 13.5131 21.3306 13.5782 21.6847 13.7378L21.67 13.7323C21.9569 13.89 22.1485 14.1906 22.1485 14.5353L22.1467 14.5967V14.594L22.1476 14.6288C22.1476 15.0743 21.879 15.4575 21.494 15.6243L21.4867 15.627C21.6709 15.693 21.8249 15.8058 21.9395 15.9515L21.9413 15.9534C22.0708 16.1676 22.1249 16.4189 22.0953 16.6675L22.0962 16.662V17.4301H21.1649V16.9443C21.209 16.6798 21.1559 16.4082 21.0155 16.1798L21.0182 16.1844C20.9215 16.1109 20.8108 16.0579 20.693 16.0284C20.5751 15.9989 20.4525 15.9937 20.3326 16.013L20.3381 16.012H19.3462V17.4301V17.431ZM19.3462 14.351V15.2228H20.4737C20.633 15.2375 20.7932 15.209 20.9376 15.1403L20.9321 15.143C20.9911 15.105 21.0396 15.0527 21.0732 14.9911C21.1068 14.9294 21.1245 14.8603 21.1246 14.7901L21.1237 14.769C21.1282 14.699 21.1128 14.63 21.0792 14.5683C21.0456 14.5067 20.9952 14.4558 20.9339 14.4216L20.9321 14.4207C20.793 14.3585 20.6402 14.3332 20.4884 14.3474H20.4921L19.3462 14.351ZM11.0733 17.4301H7.40025V13.549H11.1311L12.2723 14.8213L13.4521 13.549H16.4157C17.468 13.549 17.9795 13.9679 17.9795 14.8277C17.9795 15.7031 17.4506 16.1285 16.3662 16.1285H15.2066V17.4292H13.4035L12.2613 16.1468L11.0742 17.4301H11.0733ZM14.2826 13.9651L12.8581 15.496L14.2826 17.0763V13.9651ZM8.32517 15.8489V16.6207H10.6058L11.66 15.4822L10.6462 14.351H8.32425V15.0569H10.3611V15.848L8.32517 15.8489ZM15.2066 14.352V15.3401H16.4047C16.7713 15.3401 16.9822 15.1531 16.9822 14.8268C16.9822 14.5151 16.786 14.351 16.4147 14.351L15.2066 14.352ZM31.7414 17.432H29.9502V16.5978H31.7341C31.8676 16.6162 32.0029 16.5813 32.1108 16.5006L32.1099 16.5015C32.1444 16.4696 32.1718 16.4309 32.1906 16.3878C32.2094 16.3447 32.219 16.2983 32.219 16.2513V16.2366C32.2191 16.1902 32.209 16.1444 32.1895 16.1023C32.1701 16.0602 32.1416 16.0228 32.1062 15.9928C32.0114 15.9242 31.8944 15.8935 31.7781 15.9066H31.7799L31.6085 15.9011C30.7707 15.8791 29.8219 15.8535 29.8219 14.7049C29.8219 14.1457 30.1721 13.549 31.152 13.549H33.0009V14.3758H31.3097C31.179 14.3612 31.0471 14.3874 30.932 14.451L30.9357 14.4491C30.8904 14.4789 30.854 14.5203 30.8303 14.5691C30.8066 14.6178 30.7964 14.672 30.8009 14.726V14.725V14.7351C30.8009 14.7969 30.8204 14.8571 30.8566 14.9071C30.8928 14.9572 30.9439 14.9945 31.0026 15.0138L31.0044 15.0147C31.1206 15.0505 31.2423 15.0654 31.3637 15.0587H31.361L31.8642 15.0715C32.2436 15.0337 32.6226 15.1466 32.9193 15.386L32.9166 15.3841C32.9441 15.4061 32.9679 15.43 32.989 15.4565L32.9899 15.4575L33.0009 16.9351C32.8468 17.1153 32.6507 17.2547 32.4299 17.3412C32.2091 17.4277 31.9705 17.4585 31.735 17.431L31.7414 17.432ZM28.1215 17.432H26.3138V16.5978H28.1123C28.2469 16.6154 28.3831 16.5806 28.4927 16.5006L28.4909 16.5015C28.5251 16.4695 28.5524 16.4307 28.571 16.3877C28.5896 16.3446 28.5992 16.2982 28.5991 16.2513V16.2421C28.599 16.1949 28.589 16.1483 28.5695 16.1053C28.5501 16.0623 28.5217 16.024 28.4863 15.9928C28.3898 15.9242 28.2713 15.8935 28.1536 15.9066H28.1554L27.9849 15.9011C27.1498 15.8791 26.202 15.8535 26.202 14.7049C26.202 14.1457 26.5503 13.549 27.5284 13.549H29.3874V14.3758H27.6861C27.5563 14.3613 27.4253 14.3876 27.3112 14.451L27.3148 14.4491C27.2667 14.4823 27.2284 14.5278 27.204 14.5809C27.1795 14.634 27.1699 14.6927 27.1761 14.7509C27.1823 14.809 27.2041 14.8643 27.2392 14.9111C27.2742 14.9579 27.3213 14.9943 27.3753 15.0165L27.3772 15.0175C27.4949 15.0536 27.6181 15.0685 27.7411 15.0615H27.7383L28.2379 15.0743C28.6193 15.0375 29 15.1506 29.2994 15.3896L29.2967 15.3869C29.3974 15.4979 29.474 15.6287 29.5217 15.7708C29.5693 15.913 29.587 16.0635 29.5735 16.2128V16.2082C29.5762 17.0176 29.0858 17.4301 28.1187 17.4301L28.1215 17.432ZM25.7583 17.432H22.66V13.548H25.7556V14.3501H23.5858V15.056H25.7052V15.847H23.5858V16.6189L25.7583 16.6225V17.4292V17.432ZM27.5642 10.7531H25.6749L25.3137 9.88779H23.3869L23.0367 10.7531H21.9514C21.464 10.7788 20.984 10.6253 20.6021 10.3214L20.6067 10.3241C20.4252 10.1238 20.2875 9.88795 20.2022 9.63148C20.117 9.37501 20.0862 9.1036 20.1117 8.83454L20.1107 8.84188C20.0871 8.56787 20.1195 8.29192 20.2059 8.03081C20.2922 7.76969 20.4308 7.52887 20.6131 7.32296L20.6112 7.32479C20.8037 7.15648 21.0288 7.02958 21.2725 6.95199C21.5161 6.8744 21.7731 6.84778 22.0275 6.87379L22.0202 6.87288H22.9185V7.70063H22.0385C21.9097 7.68404 21.7789 7.69606 21.6553 7.73583C21.5317 7.7756 21.4184 7.84214 21.3235 7.93071L21.3244 7.92979C21.1284 8.18078 21.0333 8.49595 21.0577 8.81346V8.80888C21.0285 9.13509 21.1201 9.46066 21.3152 9.72371L21.3125 9.72004C21.4947 9.86897 21.728 9.9407 21.9624 9.91988H21.9587H22.3749L23.6867 6.86738H25.08L26.6502 10.534V6.86738H28.0628L29.6927 9.56971V6.86738H30.646V10.7467H29.3223L27.5623 7.83354V10.7467L27.5642 10.7531ZM24.3567 7.52829L23.7178 9.07563H24.9984L24.3567 7.52829ZM15.3743 10.7513H14.4467V6.87013H16.5807C16.9702 6.82971 17.3634 6.89593 17.7182 7.06171L17.7045 7.05621C17.8472 7.13511 17.9661 7.25076 18.049 7.39117C18.1318 7.53157 18.1756 7.6916 18.1757 7.85463L18.1738 7.91879V7.91604V7.94446C18.1739 8.15617 18.1129 8.3634 17.9981 8.54128C17.8833 8.71916 17.7196 8.86014 17.5267 8.94729L17.5193 8.95004C17.7036 9.01971 17.8585 9.13154 17.9767 9.27454L17.9786 9.27638C18.1094 9.49141 18.1633 9.74445 18.1317 9.99413L18.1326 9.98863V10.7504H17.1967L17.193 10.2609V10.1875C17.2263 9.9482 17.1733 9.70482 17.0436 9.50096L17.0463 9.50554C16.9492 9.43422 16.839 9.38283 16.7219 9.35435C16.6049 9.32588 16.4833 9.32087 16.3643 9.33963L16.3698 9.33871H15.3752V10.7504L15.3743 10.7513ZM15.3743 7.67771V8.53938H16.5C16.659 8.55663 16.8196 8.528 16.9629 8.45688L16.9583 8.45871C17.017 8.42302 17.0656 8.37282 17.0993 8.31294C17.133 8.25306 17.1508 8.18551 17.1508 8.11679L17.1499 8.09113C17.1546 8.02148 17.1387 7.9529 17.1044 7.89214C17.07 7.83138 17.0186 7.78201 16.9565 7.75013L16.9547 7.74921C16.8152 7.68936 16.6633 7.6642 16.5119 7.67588H16.5147L15.3743 7.67771ZM5.55133 10.7513H3.66667L3.31008 9.88596H1.37775L1.01842 10.7513H0.0100833L1.672 6.87013H3.04975L4.62733 10.5432V6.87013H6.14075L7.35442 9.50188L8.47 6.87013H10.0146V10.7495H9.06125L9.05942 7.71346L7.71467 10.7504H6.90067L5.55225 7.70888V10.7504L5.55133 10.7513ZM2.33933 7.52829L1.70775 9.07563H2.97458L2.33933 7.52829ZM19.6533 10.7504H18.7073V6.87013H19.6542V10.7495L19.6533 10.7504ZM13.7995 10.7504H10.7067V6.87013H13.805V7.67679H11.6343V8.37621H13.7527V9.17279H11.6325V9.94829H13.8032V10.7495L13.7995 10.7504Z" fill="black"/>
</g>
<defs>
<clipPath id="clip0_229_13805">
<rect width="33" height="22" fill="white" transform="translate(0 0.966797)"/>
</clipPath>
</defs>
</svg>
