<svg width="25" height="25" viewBox="0 0 25 25" fill="none" xmlns="http://www.w3.org/2000/svg">
<g id="iconos">
<path id="Vector" d="M11.1 17.5668L18.15 10.5168L16.75 9.1168L11.1 14.7668L8.25 11.9168L6.85 13.3168L11.1 17.5668ZM12.5 22.9668C11.1167 22.9668 9.81667 22.7041 8.6 22.1788C7.38333 21.6535 6.325 20.9411 5.425 20.0418C4.525 19.1418 3.81267 18.0835 3.288 16.8668C2.76333 15.6501 2.50067 14.3501 2.5 12.9668C2.5 11.5835 2.76267 10.2835 3.288 9.0668C3.81333 7.85013 4.52567 6.7918 5.425 5.8918C6.325 4.9918 7.38333 4.27946 8.6 3.7548C9.81667 3.23013 11.1167 2.96746 12.5 2.9668C13.8833 2.9668 15.1833 3.22946 16.4 3.7548C17.6167 4.28013 18.675 4.99246 19.575 5.8918C20.475 6.7918 21.1877 7.85013 21.713 9.0668C22.2383 10.2835 22.5007 11.5835 22.5 12.9668C22.5 14.3501 22.2373 15.6501 21.712 16.8668C21.1867 18.0835 20.4743 19.1418 19.575 20.0418C18.675 20.9418 17.6167 21.6545 16.4 22.1798C15.1833 22.7051 13.8833 22.9675 12.5 22.9668Z" fill="#0079E2"/>
</g>
</svg>
