<svg width="24" height="24" viewBox="0 0 24 24" fill="none" xmlns="http://www.w3.org/2000/svg">
<g id="vuesax/bold/calendar">
<g id="calendar">
<path id="Vector" d="M8.25 5.75006C7.84 5.75006 7.5 5.41006 7.5 5.00006V2.00006C7.5 1.59006 7.84 1.25006 8.25 1.25006C8.66 1.25006 9 1.59006 9 2.00006V5.00006C9 5.41006 8.66 5.75006 8.25 5.75006Z" fill="#D01317"/>
<path id="Vector_2" d="M15.75 5.75006C15.34 5.75006 15 5.41006 15 5.00006V2.00006C15 1.59006 15.34 1.25006 15.75 1.25006C16.16 1.25006 16.5 1.59006 16.5 2.00006V5.00006C16.5 5.41006 16.16 5.75006 15.75 5.75006Z" fill="#D01317"/>
<path id="Vector_3" d="M11.9996 14.0901C12.5196 14.0901 12.8996 13.7801 12.8996 13.2901C12.8996 12.7901 12.5196 12.5001 11.9996 12.5001C11.4796 12.5001 11.0996 12.7901 11.0996 13.2901C11.0996 13.7801 11.4796 14.0901 11.9996 14.0901Z" fill="#D01317"/>
<path id="Vector_4" d="M12.0004 17.0001C12.63 17.0001 13.1404 16.5837 13.1404 16.0701C13.1404 15.5565 12.63 15.1401 12.0004 15.1401C11.3707 15.1401 10.8604 15.5565 10.8604 16.0701C10.8604 16.5837 11.3707 17.0001 12.0004 17.0001Z" fill="#D01317"/>
<path id="Vector_5" d="M19.57 4.50006C18.91 4.01006 17.96 4.48006 17.96 5.31006V5.41006C17.96 6.58006 17.12 7.66006 15.95 7.78006C14.6 7.92006 13.46 6.86006 13.46 5.54006V4.50006C13.46 3.95006 13.01 3.50006 12.46 3.50006H11.54C10.99 3.50006 10.54 3.95006 10.54 4.50006V5.54006C10.54 6.33006 10.13 7.03006 9.51 7.42006C9.42 7.48006 9.32 7.53006 9.22 7.58006C9.13 7.63006 9.03 7.67006 8.92 7.70006C8.8 7.74006 8.67 7.77006 8.53 7.78006C8.37 7.80006 8.21 7.80006 8.05 7.78006C7.91 7.77006 7.78 7.74006 7.66 7.70006C7.56 7.67006 7.46 7.63006 7.36 7.58006C7.26 7.53006 7.16 7.48006 7.07 7.42006C6.44 6.98006 6.04 6.22006 6.04 5.41006V5.31006C6.04 4.54006 5.22 4.08006 4.57 4.41006C4.56 4.42006 4.55 4.42006 4.54 4.43006C4.5 4.45006 4.47 4.47006 4.43 4.50006C4.4 4.53006 4.36 4.55006 4.33 4.58006C4.05 4.80006 3.8 5.05006 3.59 5.32006C3.48 5.44006 3.39 5.57006 3.31 5.70006C3.3 5.71006 3.29 5.72006 3.28 5.74006C3.19 5.87006 3.11 6.02006 3.04 6.16006C3.02 6.18006 3.01 6.19006 3.01 6.21006C2.95 6.33006 2.89 6.45006 2.85 6.58006C2.82 6.63006 2.81 6.67006 2.79 6.72006C2.73 6.87006 2.69 7.02006 2.65 7.17006C2.61 7.31006 2.58 7.46006 2.56 7.61006C2.54 7.72006 2.53 7.83006 2.52 7.95006C2.51 8.09006 2.5 8.23006 2.5 8.37006V17.1301C2.5 19.8201 4.68 22.0001 7.37 22.0001H16.63C19.32 22.0001 21.5 19.8201 21.5 17.1301V8.37006C21.5 6.78006 20.74 5.39006 19.57 4.50006ZM12 18.2501C10.45 18.2501 9.5 17.4801 9.5 16.2401C9.5 15.5601 9.85 14.9701 10.46 14.6201C10.02 14.3101 9.73 13.8501 9.73 13.2201C9.73 11.9201 10.77 11.2501 12 11.2501C13.23 11.2501 14.26 11.9201 14.26 13.2201C14.26 13.8501 13.98 14.3101 13.53 14.6201C14.15 14.9701 14.5 15.5601 14.5 16.2401C14.5 17.4801 13.54 18.2501 12 18.2501Z" fill="#D01317"/>
</g>
</g>
</svg>
