<svg width="24" height="25" viewBox="0 0 24 25" fill="none" xmlns="http://www.w3.org/2000/svg">
<path d="M6 23.4058C5.45 23.4058 4.979 23.2098 4.587 22.8178C4.195 22.4258 3.99934 21.9552 4 21.4058V9.40582C4 8.47249 4.28333 7.65582 4.85 6.95582C5.41667 6.25582 6.13334 5.78916 7 5.55582V3.40582H10V5.40582H14V3.40582H17V5.55582C17.8667 5.78916 18.5833 6.25582 19.15 6.95582C19.7167 7.65582 20 8.47249 20 9.40582V21.4058C20 21.9558 19.804 22.4268 19.412 22.8188C19.02 23.2108 18.5493 23.4065 18 23.4058H6ZM14.5 17.4058H16.5V13.4058H7.5V15.4058H14.5V17.4058Z" fill="#D01317"/>
</svg>
