<svg width="24" height="25" viewBox="0 0 24 25" fill="none" xmlns="http://www.w3.org/2000/svg">
<path d="M11.9946 6.96681C11.4446 6.96681 10.9736 6.77081 10.5816 6.37881C10.1896 5.98681 9.99391 5.51614 9.99458 4.96681C9.99458 4.41681 10.1906 3.94581 10.5826 3.55381C10.9746 3.16181 11.4452 2.96614 11.9946 2.96681C12.5446 2.96681 13.0156 3.16281 13.4076 3.55481C13.7996 3.94681 13.9952 4.41748 13.9946 4.96681C13.9946 5.51681 13.7986 5.98781 13.4066 6.37981C13.0146 6.77181 12.5439 6.96748 11.9946 6.96681ZM9.99458 22.9668C9.71124 22.9668 9.47358 22.8708 9.28158 22.6788C9.08958 22.4868 8.99391 22.2495 8.99458 21.9668V9.74181C7.66124 9.39181 6.56524 8.69614 5.70658 7.65481C4.84791 6.61348 4.31058 5.42548 4.09458 4.09081C4.04458 3.79081 4.12391 3.52814 4.33258 3.30281C4.54124 3.07748 4.81191 2.96548 5.14458 2.96681C5.37791 2.96681 5.58224 3.05014 5.75758 3.21681C5.93291 3.38348 6.03691 3.58348 6.06958 3.81681C6.25291 5.00014 6.76958 5.98781 7.61958 6.77981C8.46958 7.57181 9.51124 7.96748 10.7446 7.96681H13.2446C13.7446 7.96681 14.2112 8.05848 14.6446 8.24181C15.0779 8.42514 15.4696 8.69181 15.8196 9.04181L19.6446 12.8668C19.8279 13.0501 19.9196 13.2835 19.9196 13.5668C19.9196 13.8501 19.8279 14.0835 19.6446 14.2668C19.4612 14.4501 19.2279 14.5418 18.9446 14.5418C18.6612 14.5418 18.4279 14.4501 18.2446 14.2668L14.9946 11.0168V21.9668C14.9946 22.2501 14.8986 22.4878 14.7066 22.6798C14.5146 22.8718 14.2772 22.9675 13.9946 22.9668C13.7112 22.9668 13.4736 22.8708 13.2816 22.6788C13.0896 22.4868 12.9939 22.2495 12.9946 21.9668V16.9668H10.9946V21.9668C10.9946 22.2501 10.8986 22.4878 10.7066 22.6798C10.5146 22.8718 10.2772 22.9675 9.99458 22.9668Z" fill="#D01317"/>
</svg>
