<svg width="24" height="25" viewBox="0 0 24 25" fill="none" xmlns="http://www.w3.org/2000/svg">
<path d="M17.5401 9.7768C19.1748 9.7768 20.5001 8.45156 20.5001 6.8168C20.5001 5.18203 19.1748 3.8568 17.5401 3.8568C15.9053 3.8568 14.5801 5.18203 14.5801 6.8168C14.5801 8.45156 15.9053 9.7768 17.5401 9.7768Z" fill="white"/>
<path d="M6.46 9.7768C8.09476 9.7768 9.42 8.45156 9.42 6.8168C9.42 5.18203 8.09476 3.8568 6.46 3.8568C4.82524 3.8568 3.5 5.18203 3.5 6.8168C3.5 8.45156 4.82524 9.7768 6.46 9.7768Z" fill="white"/>
<path d="M17.5401 22.0768C19.1748 22.0768 20.5001 20.7516 20.5001 19.1168C20.5001 17.482 19.1748 16.1568 17.5401 16.1568C15.9053 16.1568 14.5801 17.482 14.5801 19.1168C14.5801 20.7516 15.9053 22.0768 17.5401 22.0768Z" fill="white"/>
<path d="M6.46 22.0768C8.09476 22.0768 9.42 20.7516 9.42 19.1168C9.42 17.482 8.09476 16.1568 6.46 16.1568C4.82524 16.1568 3.5 17.482 3.5 19.1168C3.5 20.7516 4.82524 22.0768 6.46 22.0768Z" fill="white"/>
</svg>
