<svg width="24" height="25" viewBox="0 0 24 25" fill="none" xmlns="http://www.w3.org/2000/svg">
<path d="M17.39 16.6368L13.35 12.9668H10.64L6.59998 16.6368C5.46998 17.6568 5.09998 19.2268 5.64998 20.6468C6.19998 22.0568 7.53998 22.9668 9.04998 22.9668H14.94C16.46 22.9668 17.79 22.0568 18.34 20.6468C18.89 19.2268 18.52 17.6568 17.39 16.6368ZM13.82 19.1068H10.18C9.79998 19.1068 9.49998 18.7968 9.49998 18.4268C9.49998 18.0568 9.80998 17.7468 10.18 17.7468H13.82C14.2 17.7468 14.5 18.0568 14.5 18.4268C14.5 18.7968 14.19 19.1068 13.82 19.1068Z" fill="#D01317"/>
<path d="M18.3502 5.2868C17.8002 3.8768 16.4602 2.9668 14.9502 2.9668H9.05016C7.54016 2.9668 6.20016 3.8768 5.65016 5.2868C5.11016 6.7068 5.48016 8.2768 6.61016 9.2968L10.6502 12.9668H13.3602L17.4002 9.2968C18.5202 8.2768 18.8902 6.7068 18.3502 5.2868ZM13.8202 8.1968H10.1802C9.80016 8.1968 9.50016 7.8868 9.50016 7.5168C9.50016 7.1468 9.81016 6.8368 10.1802 6.8368H13.8202C14.2002 6.8368 14.5002 7.1468 14.5002 7.5168C14.5002 7.8868 14.1902 8.1968 13.8202 8.1968Z" fill="#D01317"/>
</svg>
