<svg xmlns="http://www.w3.org/2000/svg" xmlns:xlink="http://www.w3.org/1999/xlink" viewBox="0 0 207.58 206.9"><defs><style>.cls-1{fill:url(#Degradado_sin_nombre_4);}</style><linearGradient id="Degradado_sin_nombre_4" x1="103.79" y1="-23.79" x2="103.79" y2="226.48" gradientUnits="userSpaceOnUse"><stop offset="0" stop-color="#f39669"/><stop offset="1" stop-color="#e83b68"/></linearGradient></defs><g id="Capa_2" data-name="Capa 2"><g id="Capa_1-2" data-name="Capa 1"><path class="cls-1" d="M207.58,103.05v.77c0,.93,0,1.79,0,2.69,0,.52,0,1-.06,1.54,0,.13,0,.22,0,.31,0,.47,0,.9-.07,1.36,0,.65-.06,1.27-.12,1.89a9.49,9.49,0,0,1-.09,1c0,.52-.09,1.05-.13,1.57l-.27,2.5c-.22,1.8-.5,3.59-.84,5.32-.25,1.54-.55,3.06-.89,4.57-.13.5-.25,1-.37,1.55s-.31,1.29-.5,1.91a106.33,106.33,0,0,1-30.25,50.15l-1.39,1.3c-1.08.93-2.16,1.85-3.24,2.75a.11.11,0,0,0-.07,0c-.58.46-1.17.9-1.76,1.33s-1.05.74-1.57,1.11c-.28.19-.53.37-.81.53l-1.23.77a.67.67,0,0,1-.19.12c-.55.31-1.11.65-1.67,1a1.61,1.61,0,0,1-.46.22,10.75,10.75,0,0,1-1.33.71c-.25.12-.46.24-.68.34-.43.21-.86.43-1.3.61-.86.38-1.7.72-2.56,1.06-.46.18-.9.34-1.36.49-.65.22-1.27.43-1.92.62a20.29,20.29,0,0,1-2,.52c-.62.19-1.27.31-1.92.47a35.42,35.42,0,0,1-3.92.61c-.65.1-1.27.16-2,.22-15.6,1.27-31-5.22-41.62-16.38-.77-.8-1.51-1.7-2.26-2.56a41.18,41.18,0,0,1-3.09-4.05c-.49-.74-1-1.51-1.48-2.28A49.61,49.61,0,0,1,87,142c0-.4.06-.86.09-1.3v-.34c.06-.61.1-1.23.19-1.82.12-1.24.31-2.47.55-3.74,0-.37.13-.74.19-1.11s.22-.93.31-1.42.18-.74.28-1.11c.12-.53.28-1,.4-1.52a.71.71,0,0,0,.06-.25s0-.09.06-.12a.32.32,0,0,1,.06-.18c.28-1,.56-1.92.93-2.85.09-.31.22-.65.31-1a1.94,1.94,0,0,0-2.22-2.57.57.57,0,0,0-.25.06.82.82,0,0,0-.37.19.8.8,0,0,0-.28.18l-.12.13a2.55,2.55,0,0,0-.28.4s0,.06-.06.09-.07.16-.13.28c-.18.31-.46.86-.83,1.61,0,0,0,0,0,0a116.38,116.38,0,0,0-5,12c-.28.83-.58,1.69-.86,2.59-.34,1.08-.71,2.23-1,3.4-.13.46-.25.93-.41,1.42s-.27,1.11-.43,1.7-.28,1.14-.43,1.73-.25,1.05-.34,1.61c-.4,1.67-.71,3.4-1,5.16-.06.31-.09.58-.12.89-.16,1.05-.31,2.14-.44,3.25,0,.55-.09,1.14-.15,1.7,0,.12,0,.21,0,.31,0,.58-.09,1.2-.12,1.79,0,.43,0,.86-.07,1.3,0,.86,0,1.73,0,2.59v1.21c0,.65.06,1.7.1,2.35,0,.46.06,1,.09,1.42l.09.92a33.44,33.44,0,0,0,.5,4c.12.56.21,1.14.34,1.7s.21,1.11.34,1.64c0,.06,0,.06,0,.09.15.56.27,1.14.46,1.7v.09c.15.47.28,1,.43,1.42.22.71.43,1.42.71,2.14.19.55.4,1.08.62,1.63a3.4,3.4,0,0,1,.16.34c.21.53.46,1,.71,1.58a14.24,14.24,0,0,0,.71,1.48c.34.68.68,1.33,1.08,2s.62,1.08,1,1.61a41,41,0,0,0,4.82,6.3c.27.31.55.62.86.93l1.24,1.23c.34.34.68.65,1,1s.8.74,1.23,1.08c.19.19.78.65,1.36,1.11a.52.52,0,0,1,.13.13.36.36,0,0,1,.12.31.43.43,0,0,1-.4.43c-.06,0-.09,0-.16,0-.83-.06-1.79-.19-2.31-.25a103.13,103.13,0,0,1-16.13-3.4,99.35,99.35,0,0,1-16.63-6.52l0,0c-.71-.34-1.45-.71-2.13-1.08-2.59-1.33-5.1-2.81-7.54-4.36-.68-.4-1.3-.83-1.94-1.26a6.16,6.16,0,0,0-.59-.4c-.68-.47-1.39-.93-2-1.43l-.68-.49a6.29,6.29,0,0,1-2.19-7.17,283.61,283.61,0,0,1,63-100.17c.31,2,.68,4.08,1,6.08a2.67,2.67,0,0,0,.28,1,1,1,0,0,0,1.63.4c.93-.74,1.83-1.51,2.75-2.25a1,1,0,0,0,.31-.65l.47-4.64c.27-2.37.52-4.72.77-7.1v-.09a1,1,0,0,1,.46-.78c.84-.68,1.67-1.33,2.54-2,2.22-1.76,4.45-3.55,6.7-5.31,1.08-.83,1.61-.62,1.92.71,1,4.08,1.94,8.13,2.9,12.17.9,3.74,1.76,7.45,2.66,11.19.52,2.19,1.08,4.42,1.61,6.61a2.22,2.22,0,0,0,.46.81l.93.09c1-.68,1.79-1.52,2.68-2.26a1.6,1.6,0,0,0,.53-.89c.12-.59.18-1.18.25-1.8.92-11.49,1.88-23,2.84-34.54.09-1.45.22-2.87.34-4.33a2.48,2.48,0,0,1,1.05-2c2-1.55,3.92-3.19,5.87-4.76,1.76-1.42,3.49-2.84,5.25-4.24a5.53,5.53,0,0,0,1.86-2.65,18.49,18.49,0,0,0,.52-2.17c0-.09,0-.15.06-.24,0-.44.1-.9.13-1.33a3,3,0,0,0-2-2.26l-2.26-.18a8.88,8.88,0,0,0-5,2c-.84.74-1.64,1.48-2.47,2.22-1.09,1-2.2,2-3.28,2.94-1.54,1.39-3.09,2.78-4.63,4.2a1.85,1.85,0,0,1-1.52.49c-1.57-.12-3.15-.24-4.73-.4q-17.79-1.44-35.59-3a2.34,2.34,0,0,0-1.92.65c-.65.59-1.33,1.12-2,1.67a1,1,0,0,0-.38.4c0,.22,0,.44-.06.62a1,1,0,0,0,.71.9c5.13,2.13,10.26,4.29,15.39,6.42,4.42,1.89,8.87,3.74,13.29,5.63a.89.89,0,0,1,.31,1.61c-2,1.79-3.9,3.52-5.84,5.28-.47.43-1,.89-1.42,1.33a.07.07,0,0,0-.07.06c-.52.43-1,.9-1.48,1.36a1.94,1.94,0,0,1-1.27.56,1,1,0,0,1-.52,0c-3.37-.31-6.77-.56-10.14-.87a2.58,2.58,0,0,0-2.1.65,20.19,20.19,0,0,1-2.19,1.88,1.19,1.19,0,0,0,.4,2c1.48.47,2.94,1,4.42,1.46.71.24,1.45.46,2.13.74l-1.11.83a298.45,298.45,0,0,0-24.29,21.2l-3.27,3.24c-2.14,2.2-4.27,4.39-6.34,6.65l-2.22,2.62q-6.17,6.72-11.84,13.88l-1.94,2.28c-1.55,2-3.06,3.93-4.51,5.94l-4,5.5c-.49.71-1,1.39-1.45,2.07l-2.29,3.61c-2,2.94-3.86,5.9-5.72,8.9l-1.32,2c-.65,1.11-1.77,2.93-2.45,4l-3.83,6.89a1.51,1.51,0,0,1-2.56.12c-.53-.77-1.08-1.54-1.61-2.38A102.14,102.14,0,0,1,.34,113.15c-.15-1.6-.25-3.21-.34-4.85a1.64,1.64,0,0,1,2.44-1.48,25,25,0,0,0,6.71,2.44c16.28,3.43,34.76-8.93,44.46-16.78l.12-.09c2.17-2,4.39-3.93,6.62-5.81.06-.06.09-.06.09-.06a2,2,0,0,0-1.36-3.46,2.3,2.3,0,0,0-.84.21A125.69,125.69,0,0,1,42,92.7l-1.11.49c-.5.22-.93.4-1.33.53l-.37.15c-.22.06-.43.16-.65.22a.9.9,0,0,1-.25.06,7.68,7.68,0,0,1-.8.22C19.65,98.72,2,81.05,8.68,62.51A103.8,103.8,0,0,1,87.14,1.33a.59.59,0,0,0,.21,0C89.64,1,91.92.65,94.24.46A6.49,6.49,0,0,1,95,.37C96.13.28,97.27.19,98.41.12h.25c.43,0,.87,0,1.27,0s.65,0,1-.06h1l1.89,0h.12q3.66,0,7.23.28c.59,0,1.15.06,1.7.12a5.05,5.05,0,0,1,.68.06c1,.1,2,.19,2.94.31l.46,0c.06,0,.09,0,.12,0,.84.13,1.67.22,2.51.34,0,0,.06,0,.06,0,.86.12,1.73.27,2.56.43s1.46.24,2.17.4a5.25,5.25,0,0,1,.71.15l.55.1,1.67.37c.84.21,1.67.4,2.47.62.28.06.56.15.87.21l1.64.47c.8.21,1.63.46,2.44.71a6.11,6.11,0,0,1,.65.21l2,.65c.5.19,1,.34,1.43.5s.8.3,1.14.4c.68.28,1.36.55,2,.8a11.84,11.84,0,0,1,1.36.56c1.14.46,2.28,1,3.4,1.45a1,1,0,0,0,.28.12l2.13,1s.06,0,.09.06c.74.34,1.48.71,2.19,1.12h0s.07,0,.1,0h0c.59.34,1.17.65,1.76,1a3.38,3.38,0,0,1,.46.24c.78.4,1.49.84,2.23,1.27h0c.49.31,1,.59,1.45.86.77.47,1.55,1,2.29,1.43.21.15.43.27.65.43l.15.09c.83.56,1.7,1.11,2.5,1.7.34.22.65.43.93.65,0,0,0,0,.06,0s.19.12.25.19c.52.37,1.05.74,1.54,1.14h0l0,0,1,.77a.76.76,0,0,1,.25.16,2.49,2.49,0,0,1,.4.34.36.36,0,0,1,.13.09l.24.18c.28.25.59.47.87.72.59.46,1.14.92,1.7,1.39l.4.3c.46.41.87.78,1.3,1.15,0,0,0,0,0,0h0c.09.09.19.15.28.25a4,4,0,0,1,.52.49c.19.16.37.31.56.49s.34.28.53.47l.4.37,1.23,1.2c.4.37.84.78,1.24,1.18.25.28.49.52.74.77.46.46.93,1,1.36,1.42s1.05,1.08,1.54,1.64l1.52,1.7c1.7,2,3.31,3.92,4.85,6,.49.65,1,1.33,1.45,2,.37.5.74,1,1.08,1.55.22.28.41.59.59.86.37.53.71,1.08,1,1.61l.16.25c.43.65.83,1.33,1.23,2s.87,1.43,1.27,2.17,1,1.64,1.39,2.47.9,1.67,1.3,2.5c.37.68.71,1.39,1,2.07s.52,1.11.77,1.64c.12.25.22.49.34.74.28.62.52,1.24.8,1.86,1,2.44,2,4.91,2.84,7.47.16.5.31,1,.5,1.55l.31,1.05c.18.65.37,1.27.55,1.91.72,2.48,1.33,5,1.83,7.48.15.68.28,1.33.4,2,.25,1.3.46,2.6.65,3.93.09.52.15,1,.21,1.54.16,1.14.28,2.26.38,3.4.09.83.15,1.67.24,2.5v.09c0,.62.06,1.21.1,1.86l0,.65c0,.28,0,.55.06.8C207.58,100.64,207.58,102.15,207.58,103.05Z"/></g></g></svg>