<svg xmlns="http://www.w3.org/2000/svg" style="display:none;">
    <symbol id="calendar" viewBox="0 0 24 24">
        <path d="M8 14C7.71667 14 7.47933 13.904 7.288 13.712C7.09667 13.52 7.00067 13.2827 7 13C6.99933 12.7173 7.09533 12.48 7.288 12.288C7.48067 12.096 7.718 12 8 12C8.282 12 8.51967 12.096 8.713 12.288C8.90633 12.48 9.002 12.7173 9 13C8.998 13.2827 8.902 13.5203 8.712 13.713C8.522 13.9057 8.28467 14.0013 8 14ZM12 14C11.7167 14 11.4793 13.904 11.288 13.712C11.0967 13.52 11.0007 13.2827 11 13C10.9993 12.7173 11.0953 12.48 11.288 12.288C11.4807 12.096 11.718 12 12 12C12.282 12 12.5197 12.096 12.713 12.288C12.9063 12.48 13.002 12.7173 13 13C12.998 13.2827 12.902 13.5203 12.712 13.713C12.522 13.9057 12.2847 14.0013 12 14ZM16 14C15.7167 14 15.4793 13.904 15.288 13.712C15.0967 13.52 15.0007 13.2827 15 13C14.9993 12.7173 15.0953 12.48 15.288 12.288C15.4807 12.096 15.718 12 16 12C16.282 12 16.5197 12.096 16.713 12.288C16.9063 12.48 17.002 12.7173 17 13C16.998 13.2827 16.902 13.5203 16.712 13.713C16.522 13.9057 16.2847 14.0013 16 14ZM5 22C4.45 22 3.97933 21.8043 3.588 21.413C3.19667 21.0217 3.00067 20.5507 3 20V6C3 5.45 3.196 4.97934 3.588 4.588C3.98 4.19667 4.45067 4.00067 5 4H6V3C6 2.71667 6.096 2.47934 6.288 2.288C6.48 2.09667 6.71733 2.00067 7 2C7.28267 1.99934 7.52033 2.09534 7.713 2.288C7.90567 2.48067 8.00133 2.718 8 3V4H16V3C16 2.71667 16.096 2.47934 16.288 2.288C16.48 2.09667 16.7173 2.00067 17 2C17.2827 1.99934 17.5203 2.09534 17.713 2.288C17.9057 2.48067 18.0013 2.718 18 3V4H19C19.55 4 20.021 4.196 20.413 4.588C20.805 4.98 21.0007 5.45067 21 6V20C21 20.55 20.8043 21.021 20.413 21.413C20.0217 21.805 19.5507 22.0007 19 22H5ZM5 20H19V10H5V20Z" fill="#2A84FC"/>
    </symbol>
    <symbol id="caret-down" viewBox="0 0 24 24">
        <path d="M11.4752 14.475L7.8502 10.85C7.8002 10.8 7.76286 10.746 7.7382 10.688C7.71353 10.63 7.70086 10.5673 7.7002 10.5C7.7002 10.3667 7.7462 10.25 7.8382 10.15C7.9302 10.05 8.05086 10 8.2002 10H15.8002C15.9502 10 16.0712 10.05 16.1632 10.15C16.2552 10.25 16.3009 10.3667 16.3002 10.5C16.3002 10.5333 16.2502 10.65 16.1502 10.85L12.5252 14.475C12.4419 14.5583 12.3585 14.6167 12.2752 14.65C12.1919 14.6833 12.1002 14.7 12.0002 14.7C11.9002 14.7 11.8085 14.6833 11.7252 14.65C11.6419 14.6167 11.5585 14.5583 11.4752 14.475Z" fill="#CCD6EB"/>
    </symbol>
    <symbol id="modal" viewBox="0 0 24 24">
        <path d="M19.6 21L13.3 14.7C12.8 15.1 12.225 15.4167 11.575 15.65C10.925 15.8833 10.2333 16 9.5 16C7.68333 16 6.146 15.3707 4.888 14.112C3.63 12.8533 3.00067 11.316 3 9.5C2.99933 7.684 3.62867 6.14667 4.888 4.888C6.14733 3.62933 7.68467 3 9.5 3C11.3153 3 12.853 3.62933 14.113 4.888C15.373 6.14667 16.002 7.684 16 9.5C16 10.2333 15.8833 10.925 15.65 11.575C15.4167 12.225 15.1 12.8 14.7 13.3L21 19.6L19.6 21ZM9.5 14C10.75 14 11.8127 13.5627 12.688 12.688C13.5633 11.8133 14.0007 10.7507 14 9.5C13.9993 8.24933 13.562 7.187 12.688 6.313C11.814 5.439 10.7513 5.00133 9.5 5C8.24867 4.99867 7.18633 5.43633 6.313 6.313C5.43967 7.18967 5.002 8.252 5 9.5C4.998 10.748 5.43567 11.8107 6.313 12.688C7.19033 13.5653 8.25267 14.0027 9.5 14Z" fill="#2A84FC"/>
    </symbol>    
</svg>
